<mxfile host="app.diagrams.net" modified="2023-07-06T08:10:29.645Z" agent="Mozilla/5.0 (Macintosh; Intel Mac OS X 10_15_7) AppleWebKit/537.36 (KHTML, like Gecko) Chrome/114.0.0.0 Safari/537.36" etag="Dj8jhJLJySnKLzb3wGax" version="21.3.7" type="github">
  <diagram name="Page-1" id="h-ahOq1lyhNz10ORgpAL">
    <mxGraphModel dx="2860" dy="2374" grid="0" gridSize="10" guides="1" tooltips="1" connect="1" arrows="1" fold="1" page="0" pageScale="1" pageWidth="827" pageHeight="1169" math="0" shadow="0">
      <root>
        <mxCell id="0" />
        <mxCell id="1" parent="0" />
        <mxCell id="r_sYGjCmVXQHVw2-_Qh0-10" value="" style="edgeStyle=orthogonalEdgeStyle;rounded=0;orthogonalLoop=1;jettySize=auto;html=1;" edge="1" parent="1" source="r_sYGjCmVXQHVw2-_Qh0-5" target="r_sYGjCmVXQHVw2-_Qh0-9">
          <mxGeometry relative="1" as="geometry" />
        </mxCell>
        <mxCell id="r_sYGjCmVXQHVw2-_Qh0-63" style="edgeStyle=orthogonalEdgeStyle;rounded=0;orthogonalLoop=1;jettySize=auto;html=1;dashed=1;" edge="1" parent="1" source="r_sYGjCmVXQHVw2-_Qh0-5" target="r_sYGjCmVXQHVw2-_Qh0-12">
          <mxGeometry relative="1" as="geometry" />
        </mxCell>
        <mxCell id="r_sYGjCmVXQHVw2-_Qh0-5" value="Load Schema" style="rounded=0;whiteSpace=wrap;html=1;" vertex="1" parent="1">
          <mxGeometry x="259.5" y="31" width="151" height="58" as="geometry" />
        </mxCell>
        <mxCell id="r_sYGjCmVXQHVw2-_Qh0-1" value="Start" style="ellipse;whiteSpace=wrap;html=1;" vertex="1" parent="1">
          <mxGeometry x="280" y="-377" width="110" height="60" as="geometry" />
        </mxCell>
        <mxCell id="r_sYGjCmVXQHVw2-_Qh0-22" style="edgeStyle=orthogonalEdgeStyle;rounded=0;orthogonalLoop=1;jettySize=auto;html=1;dashed=1;" edge="1" parent="1" source="r_sYGjCmVXQHVw2-_Qh0-9" target="r_sYGjCmVXQHVw2-_Qh0-21">
          <mxGeometry relative="1" as="geometry" />
        </mxCell>
        <mxCell id="r_sYGjCmVXQHVw2-_Qh0-67" value="" style="edgeStyle=orthogonalEdgeStyle;rounded=0;orthogonalLoop=1;jettySize=auto;html=1;" edge="1" parent="1" source="r_sYGjCmVXQHVw2-_Qh0-9" target="r_sYGjCmVXQHVw2-_Qh0-66">
          <mxGeometry relative="1" as="geometry" />
        </mxCell>
        <mxCell id="r_sYGjCmVXQHVw2-_Qh0-9" value="Load Packages" style="rounded=0;whiteSpace=wrap;html=1;" vertex="1" parent="1">
          <mxGeometry x="258.75" y="266" width="153.25" height="63" as="geometry" />
        </mxCell>
        <mxCell id="r_sYGjCmVXQHVw2-_Qh0-12" value="" style="rounded=0;whiteSpace=wrap;html=1;" vertex="1" parent="1">
          <mxGeometry x="-517" y="-55" width="433" height="526" as="geometry" />
        </mxCell>
        <mxCell id="r_sYGjCmVXQHVw2-_Qh0-20" value="" style="edgeStyle=orthogonalEdgeStyle;rounded=0;orthogonalLoop=1;jettySize=auto;html=1;" edge="1" parent="1" source="r_sYGjCmVXQHVw2-_Qh0-13" target="r_sYGjCmVXQHVw2-_Qh0-19">
          <mxGeometry relative="1" as="geometry" />
        </mxCell>
        <mxCell id="r_sYGjCmVXQHVw2-_Qh0-13" value="Load &lt;br&gt;Module/App&lt;br&gt;Schema&lt;br&gt;in Parallel" style="rounded=0;whiteSpace=wrap;html=1;fillColor=#fff2cc;strokeColor=#d6b656;" vertex="1" parent="1">
          <mxGeometry x="-360" y="135" width="130" height="85" as="geometry" />
        </mxCell>
        <mxCell id="r_sYGjCmVXQHVw2-_Qh0-16" style="edgeStyle=orthogonalEdgeStyle;rounded=0;orthogonalLoop=1;jettySize=auto;html=1;" edge="1" parent="1" source="r_sYGjCmVXQHVw2-_Qh0-15" target="r_sYGjCmVXQHVw2-_Qh0-13">
          <mxGeometry relative="1" as="geometry" />
        </mxCell>
        <mxCell id="r_sYGjCmVXQHVw2-_Qh0-15" value="Check Schema Cache" style="rounded=0;whiteSpace=wrap;html=1;" vertex="1" parent="1">
          <mxGeometry x="-361" y="35" width="131" height="60" as="geometry" />
        </mxCell>
        <mxCell id="r_sYGjCmVXQHVw2-_Qh0-19" value="Set Schema Cache" style="rounded=0;whiteSpace=wrap;html=1;" vertex="1" parent="1">
          <mxGeometry x="-360" y="268" width="130" height="60" as="geometry" />
        </mxCell>
        <mxCell id="r_sYGjCmVXQHVw2-_Qh0-21" value="" style="rounded=0;whiteSpace=wrap;html=1;" vertex="1" parent="1">
          <mxGeometry x="790" y="-352" width="433" height="526" as="geometry" />
        </mxCell>
        <mxCell id="r_sYGjCmVXQHVw2-_Qh0-27" style="edgeStyle=orthogonalEdgeStyle;rounded=0;orthogonalLoop=1;jettySize=auto;html=1;" edge="1" parent="1" source="r_sYGjCmVXQHVw2-_Qh0-23" target="r_sYGjCmVXQHVw2-_Qh0-26">
          <mxGeometry relative="1" as="geometry" />
        </mxCell>
        <mxCell id="r_sYGjCmVXQHVw2-_Qh0-23" value="Check Library Cache" style="rounded=0;whiteSpace=wrap;html=1;" vertex="1" parent="1">
          <mxGeometry x="941" y="-204.5" width="131" height="60" as="geometry" />
        </mxCell>
        <mxCell id="r_sYGjCmVXQHVw2-_Qh0-25" style="edgeStyle=orthogonalEdgeStyle;rounded=0;orthogonalLoop=1;jettySize=auto;html=1;entryX=0.5;entryY=0;entryDx=0;entryDy=0;" edge="1" parent="1" source="r_sYGjCmVXQHVw2-_Qh0-24" target="r_sYGjCmVXQHVw2-_Qh0-23">
          <mxGeometry relative="1" as="geometry" />
        </mxCell>
        <mxCell id="r_sYGjCmVXQHVw2-_Qh0-24" value="Reuse Packages of Host&lt;br&gt;(React/ReactDOM/ReactRouter/&lt;br&gt;ReactRouterDOM/Infrad)" style="rounded=0;whiteSpace=wrap;html=1;" vertex="1" parent="1">
          <mxGeometry x="880" y="-317.5" width="253" height="62" as="geometry" />
        </mxCell>
        <mxCell id="r_sYGjCmVXQHVw2-_Qh0-29" style="edgeStyle=orthogonalEdgeStyle;rounded=0;orthogonalLoop=1;jettySize=auto;html=1;entryX=0.5;entryY=0;entryDx=0;entryDy=0;" edge="1" parent="1" source="r_sYGjCmVXQHVw2-_Qh0-26" target="r_sYGjCmVXQHVw2-_Qh0-28">
          <mxGeometry relative="1" as="geometry" />
        </mxCell>
        <mxCell id="r_sYGjCmVXQHVw2-_Qh0-26" value="Load Packages" style="rounded=0;whiteSpace=wrap;html=1;" vertex="1" parent="1">
          <mxGeometry x="941" y="-86.5" width="131" height="60" as="geometry" />
        </mxCell>
        <mxCell id="r_sYGjCmVXQHVw2-_Qh0-28" value="Cache Packages" style="rounded=0;whiteSpace=wrap;html=1;" vertex="1" parent="1">
          <mxGeometry x="941" y="39.5" width="131" height="60" as="geometry" />
        </mxCell>
        <mxCell id="r_sYGjCmVXQHVw2-_Qh0-31" value="" style="edgeStyle=orthogonalEdgeStyle;rounded=0;orthogonalLoop=1;jettySize=auto;html=1;" edge="1" parent="1" source="r_sYGjCmVXQHVw2-_Qh0-1" target="r_sYGjCmVXQHVw2-_Qh0-30">
          <mxGeometry relative="1" as="geometry">
            <mxPoint x="335" y="-317" as="sourcePoint" />
            <mxPoint x="335" y="139" as="targetPoint" />
          </mxGeometry>
        </mxCell>
        <mxCell id="r_sYGjCmVXQHVw2-_Qh0-32" style="edgeStyle=orthogonalEdgeStyle;rounded=0;orthogonalLoop=1;jettySize=auto;html=1;" edge="1" parent="1" source="r_sYGjCmVXQHVw2-_Qh0-30" target="r_sYGjCmVXQHVw2-_Qh0-5">
          <mxGeometry relative="1" as="geometry" />
        </mxCell>
        <mxCell id="r_sYGjCmVXQHVw2-_Qh0-34" style="edgeStyle=orthogonalEdgeStyle;rounded=0;orthogonalLoop=1;jettySize=auto;html=1;dashed=1;" edge="1" parent="1" source="r_sYGjCmVXQHVw2-_Qh0-30" target="r_sYGjCmVXQHVw2-_Qh0-33">
          <mxGeometry relative="1" as="geometry" />
        </mxCell>
        <mxCell id="r_sYGjCmVXQHVw2-_Qh0-30" value="Detect Env" style="rounded=0;whiteSpace=wrap;html=1;" vertex="1" parent="1">
          <mxGeometry x="258.75" y="-194" width="151" height="58" as="geometry" />
        </mxCell>
        <mxCell id="r_sYGjCmVXQHVw2-_Qh0-33" value="" style="rounded=0;whiteSpace=wrap;html=1;" vertex="1" parent="1">
          <mxGeometry x="-518.25" y="-982" width="434.25" height="779" as="geometry" />
        </mxCell>
        <mxCell id="r_sYGjCmVXQHVw2-_Qh0-46" value="False" style="edgeStyle=orthogonalEdgeStyle;rounded=0;orthogonalLoop=1;jettySize=auto;html=1;" edge="1" parent="1" source="r_sYGjCmVXQHVw2-_Qh0-42" target="r_sYGjCmVXQHVw2-_Qh0-45">
          <mxGeometry relative="1" as="geometry" />
        </mxCell>
        <mxCell id="r_sYGjCmVXQHVw2-_Qh0-42" value="Check if provide args lcEnv" style="rhombus;whiteSpace=wrap;html=1;" vertex="1" parent="1">
          <mxGeometry x="-410.25" y="-976" width="220" height="80" as="geometry" />
        </mxCell>
        <mxCell id="r_sYGjCmVXQHVw2-_Qh0-48" value="" style="edgeStyle=orthogonalEdgeStyle;rounded=0;orthogonalLoop=1;jettySize=auto;html=1;" edge="1" parent="1" source="r_sYGjCmVXQHVw2-_Qh0-45" target="r_sYGjCmVXQHVw2-_Qh0-47">
          <mxGeometry relative="1" as="geometry" />
        </mxCell>
        <mxCell id="r_sYGjCmVXQHVw2-_Qh0-53" value="" style="edgeStyle=orthogonalEdgeStyle;rounded=0;orthogonalLoop=1;jettySize=auto;html=1;" edge="1" parent="1" source="r_sYGjCmVXQHVw2-_Qh0-45" target="r_sYGjCmVXQHVw2-_Qh0-47">
          <mxGeometry relative="1" as="geometry" />
        </mxCell>
        <mxCell id="r_sYGjCmVXQHVw2-_Qh0-54" value="False" style="edgeLabel;html=1;align=center;verticalAlign=middle;resizable=0;points=[];" vertex="1" connectable="0" parent="r_sYGjCmVXQHVw2-_Qh0-53">
          <mxGeometry x="0.0154" y="3" relative="1" as="geometry">
            <mxPoint as="offset" />
          </mxGeometry>
        </mxCell>
        <mxCell id="r_sYGjCmVXQHVw2-_Qh0-45" value="Check if url query has lcEnv" style="rhombus;whiteSpace=wrap;html=1;" vertex="1" parent="1">
          <mxGeometry x="-410.25" y="-824" width="220" height="80" as="geometry" />
        </mxCell>
        <mxCell id="r_sYGjCmVXQHVw2-_Qh0-50" value="" style="edgeStyle=orthogonalEdgeStyle;rounded=0;orthogonalLoop=1;jettySize=auto;html=1;" edge="1" parent="1" source="r_sYGjCmVXQHVw2-_Qh0-47" target="r_sYGjCmVXQHVw2-_Qh0-49">
          <mxGeometry relative="1" as="geometry" />
        </mxCell>
        <mxCell id="r_sYGjCmVXQHVw2-_Qh0-55" value="False" style="edgeLabel;html=1;align=center;verticalAlign=middle;resizable=0;points=[];" vertex="1" connectable="0" parent="r_sYGjCmVXQHVw2-_Qh0-50">
          <mxGeometry x="0.1111" relative="1" as="geometry">
            <mxPoint y="1" as="offset" />
          </mxGeometry>
        </mxCell>
        <mxCell id="r_sYGjCmVXQHVw2-_Qh0-47" value="Check if host is Space Live" style="rhombus;whiteSpace=wrap;html=1;" vertex="1" parent="1">
          <mxGeometry x="-410.25" y="-679" width="220" height="80" as="geometry" />
        </mxCell>
        <mxCell id="r_sYGjCmVXQHVw2-_Qh0-52" value="" style="edgeStyle=orthogonalEdgeStyle;rounded=0;orthogonalLoop=1;jettySize=auto;html=1;" edge="1" parent="1" source="r_sYGjCmVXQHVw2-_Qh0-49" target="r_sYGjCmVXQHVw2-_Qh0-51">
          <mxGeometry relative="1" as="geometry" />
        </mxCell>
        <mxCell id="r_sYGjCmVXQHVw2-_Qh0-56" value="False" style="edgeLabel;html=1;align=center;verticalAlign=middle;resizable=0;points=[];" vertex="1" connectable="0" parent="r_sYGjCmVXQHVw2-_Qh0-52">
          <mxGeometry x="-0.1111" y="4" relative="1" as="geometry">
            <mxPoint as="offset" />
          </mxGeometry>
        </mxCell>
        <mxCell id="r_sYGjCmVXQHVw2-_Qh0-49" value="Check if host is Space Test" style="rhombus;whiteSpace=wrap;html=1;" vertex="1" parent="1">
          <mxGeometry x="-410.75" y="-541" width="220" height="80" as="geometry" />
        </mxCell>
        <mxCell id="r_sYGjCmVXQHVw2-_Qh0-61" value="" style="edgeStyle=orthogonalEdgeStyle;rounded=0;orthogonalLoop=1;jettySize=auto;html=1;" edge="1" parent="1" source="r_sYGjCmVXQHVw2-_Qh0-51" target="r_sYGjCmVXQHVw2-_Qh0-60">
          <mxGeometry relative="1" as="geometry" />
        </mxCell>
        <mxCell id="r_sYGjCmVXQHVw2-_Qh0-51" value="Check if host is Local Host" style="rhombus;whiteSpace=wrap;html=1;" vertex="1" parent="1">
          <mxGeometry x="-410.75" y="-416" width="220" height="80" as="geometry" />
        </mxCell>
        <mxCell id="r_sYGjCmVXQHVw2-_Qh0-60" value="Default to Live" style="whiteSpace=wrap;html=1;" vertex="1" parent="1">
          <mxGeometry x="-360.75" y="-294" width="120" height="60" as="geometry" />
        </mxCell>
        <mxCell id="r_sYGjCmVXQHVw2-_Qh0-69" style="edgeStyle=orthogonalEdgeStyle;rounded=0;orthogonalLoop=1;jettySize=auto;html=1;dashed=1;" edge="1" parent="1" source="r_sYGjCmVXQHVw2-_Qh0-66" target="r_sYGjCmVXQHVw2-_Qh0-68">
          <mxGeometry relative="1" as="geometry" />
        </mxCell>
        <mxCell id="r_sYGjCmVXQHVw2-_Qh0-128" style="edgeStyle=orthogonalEdgeStyle;rounded=0;orthogonalLoop=1;jettySize=auto;html=1;dashed=1;" edge="1" parent="1" source="r_sYGjCmVXQHVw2-_Qh0-66" target="r_sYGjCmVXQHVw2-_Qh0-100">
          <mxGeometry relative="1" as="geometry">
            <Array as="points">
              <mxPoint x="550" y="522" />
              <mxPoint x="550" y="1217" />
            </Array>
          </mxGeometry>
        </mxCell>
        <mxCell id="r_sYGjCmVXQHVw2-_Qh0-177" value="" style="edgeStyle=orthogonalEdgeStyle;rounded=0;orthogonalLoop=1;jettySize=auto;html=1;" edge="1" parent="1" source="r_sYGjCmVXQHVw2-_Qh0-66" target="r_sYGjCmVXQHVw2-_Qh0-176">
          <mxGeometry relative="1" as="geometry" />
        </mxCell>
        <mxCell id="r_sYGjCmVXQHVw2-_Qh0-66" value="Inject Data Source Handler" style="rounded=0;whiteSpace=wrap;html=1;" vertex="1" parent="1">
          <mxGeometry x="259.5" y="490" width="153.25" height="63" as="geometry" />
        </mxCell>
        <mxCell id="r_sYGjCmVXQHVw2-_Qh0-68" value="" style="rounded=0;whiteSpace=wrap;html=1;" vertex="1" parent="1">
          <mxGeometry x="688" y="351" width="649" height="791" as="geometry" />
        </mxCell>
        <mxCell id="r_sYGjCmVXQHVw2-_Qh0-70" value="Rap Data Source hander" style="text;strokeColor=none;align=center;fillColor=none;html=1;verticalAlign=middle;whiteSpace=wrap;rounded=0;" vertex="1" parent="1">
          <mxGeometry x="691" y="353" width="163" height="27" as="geometry" />
        </mxCell>
        <mxCell id="r_sYGjCmVXQHVw2-_Qh0-80" style="edgeStyle=orthogonalEdgeStyle;rounded=0;orthogonalLoop=1;jettySize=auto;html=1;exitX=0;exitY=0.5;exitDx=0;exitDy=0;" edge="1" parent="1" source="r_sYGjCmVXQHVw2-_Qh0-71" target="r_sYGjCmVXQHVw2-_Qh0-79">
          <mxGeometry relative="1" as="geometry" />
        </mxCell>
        <mxCell id="r_sYGjCmVXQHVw2-_Qh0-81" value="Dev" style="edgeLabel;html=1;align=center;verticalAlign=middle;resizable=0;points=[];" vertex="1" connectable="0" parent="r_sYGjCmVXQHVw2-_Qh0-80">
          <mxGeometry x="0.2704" y="-1" relative="1" as="geometry">
            <mxPoint as="offset" />
          </mxGeometry>
        </mxCell>
        <mxCell id="r_sYGjCmVXQHVw2-_Qh0-83" style="edgeStyle=orthogonalEdgeStyle;rounded=0;orthogonalLoop=1;jettySize=auto;html=1;" edge="1" parent="1" source="r_sYGjCmVXQHVw2-_Qh0-71" target="r_sYGjCmVXQHVw2-_Qh0-82">
          <mxGeometry relative="1" as="geometry" />
        </mxCell>
        <mxCell id="r_sYGjCmVXQHVw2-_Qh0-87" value="Live" style="edgeLabel;html=1;align=center;verticalAlign=middle;resizable=0;points=[];" vertex="1" connectable="0" parent="r_sYGjCmVXQHVw2-_Qh0-83">
          <mxGeometry x="-0.2308" y="3" relative="1" as="geometry">
            <mxPoint as="offset" />
          </mxGeometry>
        </mxCell>
        <mxCell id="r_sYGjCmVXQHVw2-_Qh0-85" style="edgeStyle=orthogonalEdgeStyle;rounded=0;orthogonalLoop=1;jettySize=auto;html=1;" edge="1" parent="1" source="r_sYGjCmVXQHVw2-_Qh0-71" target="r_sYGjCmVXQHVw2-_Qh0-84">
          <mxGeometry relative="1" as="geometry" />
        </mxCell>
        <mxCell id="r_sYGjCmVXQHVw2-_Qh0-86" value="Test" style="edgeLabel;html=1;align=center;verticalAlign=middle;resizable=0;points=[];" vertex="1" connectable="0" parent="r_sYGjCmVXQHVw2-_Qh0-85">
          <mxGeometry x="0.0197" y="-1" relative="1" as="geometry">
            <mxPoint as="offset" />
          </mxGeometry>
        </mxCell>
        <mxCell id="r_sYGjCmVXQHVw2-_Qh0-71" value="Switch Env" style="rhombus;whiteSpace=wrap;html=1;" vertex="1" parent="1">
          <mxGeometry x="911.25" y="700" width="190.5" height="72" as="geometry" />
        </mxCell>
        <mxCell id="r_sYGjCmVXQHVw2-_Qh0-77" style="edgeStyle=orthogonalEdgeStyle;rounded=0;orthogonalLoop=1;jettySize=auto;html=1;" edge="1" parent="1" source="r_sYGjCmVXQHVw2-_Qh0-72" target="r_sYGjCmVXQHVw2-_Qh0-76">
          <mxGeometry relative="1" as="geometry" />
        </mxCell>
        <mxCell id="r_sYGjCmVXQHVw2-_Qh0-72" value="Compile URL Pattern" style="rounded=0;whiteSpace=wrap;html=1;" vertex="1" parent="1">
          <mxGeometry x="899.5" y="478" width="214" height="72" as="geometry" />
        </mxCell>
        <mxCell id="r_sYGjCmVXQHVw2-_Qh0-74" value="" style="edgeStyle=orthogonalEdgeStyle;rounded=0;orthogonalLoop=1;jettySize=auto;html=1;" edge="1" parent="1" source="r_sYGjCmVXQHVw2-_Qh0-73" target="r_sYGjCmVXQHVw2-_Qh0-72">
          <mxGeometry relative="1" as="geometry" />
        </mxCell>
        <mxCell id="r_sYGjCmVXQHVw2-_Qh0-73" value="Extract Request Header/Params/Query/Payload" style="rounded=0;whiteSpace=wrap;html=1;" vertex="1" parent="1">
          <mxGeometry x="899.5" y="368" width="214" height="72" as="geometry" />
        </mxCell>
        <mxCell id="r_sYGjCmVXQHVw2-_Qh0-78" style="edgeStyle=orthogonalEdgeStyle;rounded=0;orthogonalLoop=1;jettySize=auto;html=1;" edge="1" parent="1" source="r_sYGjCmVXQHVw2-_Qh0-76" target="r_sYGjCmVXQHVw2-_Qh0-71">
          <mxGeometry relative="1" as="geometry" />
        </mxCell>
        <mxCell id="r_sYGjCmVXQHVw2-_Qh0-76" value="Compile URL Query" style="rounded=0;whiteSpace=wrap;html=1;" vertex="1" parent="1">
          <mxGeometry x="899.5" y="598" width="214" height="72" as="geometry" />
        </mxCell>
        <mxCell id="r_sYGjCmVXQHVw2-_Qh0-90" style="edgeStyle=orthogonalEdgeStyle;rounded=0;orthogonalLoop=1;jettySize=auto;html=1;" edge="1" parent="1" source="r_sYGjCmVXQHVw2-_Qh0-79" target="r_sYGjCmVXQHVw2-_Qh0-89">
          <mxGeometry relative="1" as="geometry">
            <Array as="points">
              <mxPoint x="775" y="917" />
              <mxPoint x="1007" y="917" />
            </Array>
          </mxGeometry>
        </mxCell>
        <mxCell id="r_sYGjCmVXQHVw2-_Qh0-79" value="Prepend Rap Mock &lt;br&gt;Server Base URL" style="rounded=0;whiteSpace=wrap;html=1;" vertex="1" parent="1">
          <mxGeometry x="696" y="818" width="158" height="71" as="geometry" />
        </mxCell>
        <mxCell id="r_sYGjCmVXQHVw2-_Qh0-92" style="edgeStyle=orthogonalEdgeStyle;rounded=0;orthogonalLoop=1;jettySize=auto;html=1;" edge="1" parent="1" source="r_sYGjCmVXQHVw2-_Qh0-82" target="r_sYGjCmVXQHVw2-_Qh0-89">
          <mxGeometry relative="1" as="geometry" />
        </mxCell>
        <mxCell id="r_sYGjCmVXQHVw2-_Qh0-82" value="Prepend Live Env Base URL" style="rounded=0;whiteSpace=wrap;html=1;" vertex="1" parent="1">
          <mxGeometry x="917.25" y="824" width="178.5" height="59" as="geometry" />
        </mxCell>
        <mxCell id="r_sYGjCmVXQHVw2-_Qh0-94" style="edgeStyle=orthogonalEdgeStyle;rounded=0;orthogonalLoop=1;jettySize=auto;html=1;" edge="1" parent="1" source="r_sYGjCmVXQHVw2-_Qh0-84" target="r_sYGjCmVXQHVw2-_Qh0-89">
          <mxGeometry relative="1" as="geometry">
            <Array as="points">
              <mxPoint x="1228" y="917" />
              <mxPoint x="1007" y="917" />
            </Array>
          </mxGeometry>
        </mxCell>
        <mxCell id="r_sYGjCmVXQHVw2-_Qh0-84" value="Prepend Test Env Base URL" style="rounded=0;whiteSpace=wrap;html=1;" vertex="1" parent="1">
          <mxGeometry x="1138.5" y="822" width="178.5" height="59" as="geometry" />
        </mxCell>
        <mxCell id="r_sYGjCmVXQHVw2-_Qh0-88" value="Request using space fetcher" style="rounded=0;whiteSpace=wrap;html=1;" vertex="1" parent="1">
          <mxGeometry x="1066" y="1048" width="214" height="72" as="geometry" />
        </mxCell>
        <mxCell id="r_sYGjCmVXQHVw2-_Qh0-98" style="edgeStyle=orthogonalEdgeStyle;rounded=0;orthogonalLoop=1;jettySize=auto;html=1;" edge="1" parent="1" source="r_sYGjCmVXQHVw2-_Qh0-89" target="r_sYGjCmVXQHVw2-_Qh0-88">
          <mxGeometry relative="1" as="geometry">
            <Array as="points">
              <mxPoint x="1173" y="977" />
            </Array>
          </mxGeometry>
        </mxCell>
        <mxCell id="r_sYGjCmVXQHVw2-_Qh0-99" value="True" style="edgeLabel;html=1;align=center;verticalAlign=middle;resizable=0;points=[];" vertex="1" connectable="0" parent="r_sYGjCmVXQHVw2-_Qh0-98">
          <mxGeometry x="-0.1107" y="-2" relative="1" as="geometry">
            <mxPoint as="offset" />
          </mxGeometry>
        </mxCell>
        <mxCell id="r_sYGjCmVXQHVw2-_Qh0-158" style="edgeStyle=orthogonalEdgeStyle;rounded=0;orthogonalLoop=1;jettySize=auto;html=1;" edge="1" parent="1" source="r_sYGjCmVXQHVw2-_Qh0-89" target="r_sYGjCmVXQHVw2-_Qh0-95">
          <mxGeometry relative="1" as="geometry">
            <Array as="points">
              <mxPoint x="804" y="977" />
            </Array>
          </mxGeometry>
        </mxCell>
        <mxCell id="r_sYGjCmVXQHVw2-_Qh0-159" value="False" style="edgeLabel;html=1;align=center;verticalAlign=middle;resizable=0;points=[];" vertex="1" connectable="0" parent="r_sYGjCmVXQHVw2-_Qh0-158">
          <mxGeometry x="0.3871" y="3" relative="1" as="geometry">
            <mxPoint as="offset" />
          </mxGeometry>
        </mxCell>
        <mxCell id="r_sYGjCmVXQHVw2-_Qh0-89" value="Enable Space Auth" style="rhombus;whiteSpace=wrap;html=1;" vertex="1" parent="1">
          <mxGeometry x="911.25" y="941" width="190.5" height="72" as="geometry" />
        </mxCell>
        <mxCell id="r_sYGjCmVXQHVw2-_Qh0-95" value="Request using default fetcher&amp;nbsp;" style="rounded=0;whiteSpace=wrap;html=1;" vertex="1" parent="1">
          <mxGeometry x="703.25" y="1045" width="214" height="72" as="geometry" />
        </mxCell>
        <mxCell id="r_sYGjCmVXQHVw2-_Qh0-100" value="" style="rounded=0;whiteSpace=wrap;html=1;fillColor=#fff2cc;strokeColor=#d6b656;" vertex="1" parent="1">
          <mxGeometry x="1482" y="207" width="643" height="1328" as="geometry" />
        </mxCell>
        <mxCell id="r_sYGjCmVXQHVw2-_Qh0-101" value="RapV2 Data Source handler" style="text;strokeColor=none;align=center;fillColor=none;html=1;verticalAlign=middle;whiteSpace=wrap;rounded=0;" vertex="1" parent="1">
          <mxGeometry x="1487" y="209" width="182" height="30" as="geometry" />
        </mxCell>
        <mxCell id="r_sYGjCmVXQHVw2-_Qh0-147" style="edgeStyle=orthogonalEdgeStyle;rounded=0;orthogonalLoop=1;jettySize=auto;html=1;" edge="1" parent="1" source="r_sYGjCmVXQHVw2-_Qh0-110" target="r_sYGjCmVXQHVw2-_Qh0-114">
          <mxGeometry relative="1" as="geometry" />
        </mxCell>
        <mxCell id="r_sYGjCmVXQHVw2-_Qh0-110" value="Compile URL Pattern" style="rounded=0;whiteSpace=wrap;html=1;" vertex="1" parent="1">
          <mxGeometry x="1693.5" y="443" width="214" height="72" as="geometry" />
        </mxCell>
        <mxCell id="r_sYGjCmVXQHVw2-_Qh0-111" value="" style="edgeStyle=orthogonalEdgeStyle;rounded=0;orthogonalLoop=1;jettySize=auto;html=1;" edge="1" parent="1" source="r_sYGjCmVXQHVw2-_Qh0-112" target="r_sYGjCmVXQHVw2-_Qh0-110">
          <mxGeometry relative="1" as="geometry" />
        </mxCell>
        <mxCell id="r_sYGjCmVXQHVw2-_Qh0-112" value="Extract Request Header/Params/Query/Payload" style="rounded=0;whiteSpace=wrap;html=1;" vertex="1" parent="1">
          <mxGeometry x="1693.5" y="333" width="214" height="72" as="geometry" />
        </mxCell>
        <mxCell id="r_sYGjCmVXQHVw2-_Qh0-149" value="" style="edgeStyle=orthogonalEdgeStyle;rounded=0;orthogonalLoop=1;jettySize=auto;html=1;" edge="1" parent="1" source="r_sYGjCmVXQHVw2-_Qh0-114" target="r_sYGjCmVXQHVw2-_Qh0-148">
          <mxGeometry relative="1" as="geometry" />
        </mxCell>
        <mxCell id="r_sYGjCmVXQHVw2-_Qh0-114" value="Compile URL Query" style="rounded=0;whiteSpace=wrap;html=1;" vertex="1" parent="1">
          <mxGeometry x="1693.5" y="563" width="214" height="72" as="geometry" />
        </mxCell>
        <mxCell id="r_sYGjCmVXQHVw2-_Qh0-122" style="edgeStyle=orthogonalEdgeStyle;rounded=0;orthogonalLoop=1;jettySize=auto;html=1;" edge="1" parent="1" target="r_sYGjCmVXQHVw2-_Qh0-127">
          <mxGeometry relative="1" as="geometry">
            <Array as="points">
              <mxPoint x="1619" y="1807" />
            </Array>
            <mxPoint x="1701.541666666667" y="1807" as="sourcePoint" />
          </mxGeometry>
        </mxCell>
        <mxCell id="r_sYGjCmVXQHVw2-_Qh0-123" value="False" style="edgeLabel;html=1;align=center;verticalAlign=middle;resizable=0;points=[];" vertex="1" connectable="0" parent="r_sYGjCmVXQHVw2-_Qh0-122">
          <mxGeometry x="-0.2473" y="4" relative="1" as="geometry">
            <mxPoint as="offset" />
          </mxGeometry>
        </mxCell>
        <mxCell id="r_sYGjCmVXQHVw2-_Qh0-124" style="edgeStyle=orthogonalEdgeStyle;rounded=0;orthogonalLoop=1;jettySize=auto;html=1;" edge="1" parent="1" target="r_sYGjCmVXQHVw2-_Qh0-121">
          <mxGeometry relative="1" as="geometry">
            <Array as="points">
              <mxPoint x="1958" y="1809" />
            </Array>
            <mxPoint x="1886.75" y="1809" as="sourcePoint" />
          </mxGeometry>
        </mxCell>
        <mxCell id="r_sYGjCmVXQHVw2-_Qh0-125" value="True" style="edgeLabel;html=1;align=center;verticalAlign=middle;resizable=0;points=[];" vertex="1" connectable="0" parent="r_sYGjCmVXQHVw2-_Qh0-124">
          <mxGeometry x="-0.1107" y="-2" relative="1" as="geometry">
            <mxPoint as="offset" />
          </mxGeometry>
        </mxCell>
        <mxCell id="r_sYGjCmVXQHVw2-_Qh0-146" style="edgeStyle=orthogonalEdgeStyle;rounded=0;orthogonalLoop=1;jettySize=auto;html=1;" edge="1" parent="1" source="r_sYGjCmVXQHVw2-_Qh0-145" target="r_sYGjCmVXQHVw2-_Qh0-112">
          <mxGeometry relative="1" as="geometry" />
        </mxCell>
        <mxCell id="r_sYGjCmVXQHVw2-_Qh0-145" value="Find Related RapV2 Repository Config" style="rounded=0;whiteSpace=wrap;html=1;" vertex="1" parent="1">
          <mxGeometry x="1693.5" y="222" width="214" height="72" as="geometry" />
        </mxCell>
        <mxCell id="r_sYGjCmVXQHVw2-_Qh0-152" value="" style="edgeStyle=orthogonalEdgeStyle;rounded=0;orthogonalLoop=1;jettySize=auto;html=1;" edge="1" parent="1" source="r_sYGjCmVXQHVw2-_Qh0-148" target="r_sYGjCmVXQHVw2-_Qh0-151">
          <mxGeometry relative="1" as="geometry" />
        </mxCell>
        <mxCell id="r_sYGjCmVXQHVw2-_Qh0-148" value="Compile Shared Interceptors" style="rounded=0;whiteSpace=wrap;html=1;" vertex="1" parent="1">
          <mxGeometry x="1693.5" y="688" width="214" height="72" as="geometry" />
        </mxCell>
        <mxCell id="r_sYGjCmVXQHVw2-_Qh0-154" style="edgeStyle=orthogonalEdgeStyle;rounded=0;orthogonalLoop=1;jettySize=auto;html=1;entryX=0.5;entryY=0;entryDx=0;entryDy=0;" edge="1" parent="1" source="r_sYGjCmVXQHVw2-_Qh0-151" target="r_sYGjCmVXQHVw2-_Qh0-153">
          <mxGeometry relative="1" as="geometry" />
        </mxCell>
        <mxCell id="r_sYGjCmVXQHVw2-_Qh0-151" value="Bound Interceptor Queue" style="rounded=0;whiteSpace=wrap;html=1;" vertex="1" parent="1">
          <mxGeometry x="1693.5" y="821" width="214" height="72" as="geometry" />
        </mxCell>
        <mxCell id="r_sYGjCmVXQHVw2-_Qh0-167" style="edgeStyle=orthogonalEdgeStyle;rounded=0;orthogonalLoop=1;jettySize=auto;html=1;" edge="1" parent="1" source="r_sYGjCmVXQHVw2-_Qh0-153" target="r_sYGjCmVXQHVw2-_Qh0-165">
          <mxGeometry relative="1" as="geometry" />
        </mxCell>
        <mxCell id="r_sYGjCmVXQHVw2-_Qh0-153" value="Run willFetch Queue" style="rounded=0;whiteSpace=wrap;html=1;" vertex="1" parent="1">
          <mxGeometry x="1693.5" y="944" width="214" height="72" as="geometry" />
        </mxCell>
        <mxCell id="r_sYGjCmVXQHVw2-_Qh0-170" style="edgeStyle=orthogonalEdgeStyle;rounded=0;orthogonalLoop=1;jettySize=auto;html=1;" edge="1" parent="1" source="r_sYGjCmVXQHVw2-_Qh0-160" target="r_sYGjCmVXQHVw2-_Qh0-168">
          <mxGeometry relative="1" as="geometry" />
        </mxCell>
        <mxCell id="r_sYGjCmVXQHVw2-_Qh0-160" value="Request using space fetcher" style="rounded=0;whiteSpace=wrap;html=1;" vertex="1" parent="1">
          <mxGeometry x="1865.75" y="1174" width="214" height="72" as="geometry" />
        </mxCell>
        <mxCell id="r_sYGjCmVXQHVw2-_Qh0-161" style="edgeStyle=orthogonalEdgeStyle;rounded=0;orthogonalLoop=1;jettySize=auto;html=1;" edge="1" parent="1" source="r_sYGjCmVXQHVw2-_Qh0-165" target="r_sYGjCmVXQHVw2-_Qh0-160">
          <mxGeometry relative="1" as="geometry">
            <Array as="points">
              <mxPoint x="1972.75" y="1103" />
            </Array>
          </mxGeometry>
        </mxCell>
        <mxCell id="r_sYGjCmVXQHVw2-_Qh0-162" value="True" style="edgeLabel;html=1;align=center;verticalAlign=middle;resizable=0;points=[];" vertex="1" connectable="0" parent="r_sYGjCmVXQHVw2-_Qh0-161">
          <mxGeometry x="-0.1107" y="-2" relative="1" as="geometry">
            <mxPoint as="offset" />
          </mxGeometry>
        </mxCell>
        <mxCell id="r_sYGjCmVXQHVw2-_Qh0-163" style="edgeStyle=orthogonalEdgeStyle;rounded=0;orthogonalLoop=1;jettySize=auto;html=1;" edge="1" parent="1" source="r_sYGjCmVXQHVw2-_Qh0-165" target="r_sYGjCmVXQHVw2-_Qh0-166">
          <mxGeometry relative="1" as="geometry">
            <Array as="points">
              <mxPoint x="1603.75" y="1103" />
            </Array>
          </mxGeometry>
        </mxCell>
        <mxCell id="r_sYGjCmVXQHVw2-_Qh0-164" value="False" style="edgeLabel;html=1;align=center;verticalAlign=middle;resizable=0;points=[];" vertex="1" connectable="0" parent="r_sYGjCmVXQHVw2-_Qh0-163">
          <mxGeometry x="0.3871" y="3" relative="1" as="geometry">
            <mxPoint as="offset" />
          </mxGeometry>
        </mxCell>
        <mxCell id="r_sYGjCmVXQHVw2-_Qh0-165" value="Enable Space Auth" style="rhombus;whiteSpace=wrap;html=1;" vertex="1" parent="1">
          <mxGeometry x="1705.25" y="1068" width="190.5" height="72" as="geometry" />
        </mxCell>
        <mxCell id="r_sYGjCmVXQHVw2-_Qh0-169" style="edgeStyle=orthogonalEdgeStyle;rounded=0;orthogonalLoop=1;jettySize=auto;html=1;" edge="1" parent="1" source="r_sYGjCmVXQHVw2-_Qh0-166" target="r_sYGjCmVXQHVw2-_Qh0-168">
          <mxGeometry relative="1" as="geometry" />
        </mxCell>
        <mxCell id="r_sYGjCmVXQHVw2-_Qh0-166" value="Request using default fetcher&amp;nbsp;" style="rounded=0;whiteSpace=wrap;html=1;" vertex="1" parent="1">
          <mxGeometry x="1512" y="1171" width="214" height="72" as="geometry" />
        </mxCell>
        <mxCell id="r_sYGjCmVXQHVw2-_Qh0-172" value="" style="edgeStyle=orthogonalEdgeStyle;rounded=0;orthogonalLoop=1;jettySize=auto;html=1;" edge="1" parent="1" source="r_sYGjCmVXQHVw2-_Qh0-168" target="r_sYGjCmVXQHVw2-_Qh0-171">
          <mxGeometry relative="1" as="geometry" />
        </mxCell>
        <mxCell id="r_sYGjCmVXQHVw2-_Qh0-173" value="True" style="edgeLabel;html=1;align=center;verticalAlign=middle;resizable=0;points=[];" vertex="1" connectable="0" parent="r_sYGjCmVXQHVw2-_Qh0-172">
          <mxGeometry x="-0.2497" y="1" relative="1" as="geometry">
            <mxPoint as="offset" />
          </mxGeometry>
        </mxCell>
        <mxCell id="r_sYGjCmVXQHVw2-_Qh0-175" value="" style="edgeStyle=orthogonalEdgeStyle;rounded=0;orthogonalLoop=1;jettySize=auto;html=1;" edge="1" parent="1" source="r_sYGjCmVXQHVw2-_Qh0-168" target="r_sYGjCmVXQHVw2-_Qh0-174">
          <mxGeometry relative="1" as="geometry" />
        </mxCell>
        <mxCell id="r_sYGjCmVXQHVw2-_Qh0-168" value="If Sucess" style="rhombus;whiteSpace=wrap;html=1;" vertex="1" parent="1">
          <mxGeometry x="1705.25" y="1315" width="190.5" height="72" as="geometry" />
        </mxCell>
        <mxCell id="r_sYGjCmVXQHVw2-_Qh0-171" value="Run dataHandler Queue" style="whiteSpace=wrap;html=1;" vertex="1" parent="1">
          <mxGeometry x="1539" y="1437" width="146" height="60" as="geometry" />
        </mxCell>
        <mxCell id="r_sYGjCmVXQHVw2-_Qh0-174" value="Run errorHandler Queue" style="whiteSpace=wrap;html=1;" vertex="1" parent="1">
          <mxGeometry x="1926" y="1437" width="166" height="60" as="geometry" />
        </mxCell>
        <mxCell id="r_sYGjCmVXQHVw2-_Qh0-179" value="" style="edgeStyle=orthogonalEdgeStyle;rounded=0;orthogonalLoop=1;jettySize=auto;html=1;" edge="1" parent="1" source="r_sYGjCmVXQHVw2-_Qh0-176" target="r_sYGjCmVXQHVw2-_Qh0-178">
          <mxGeometry relative="1" as="geometry" />
        </mxCell>
        <mxCell id="r_sYGjCmVXQHVw2-_Qh0-176" value="Render" style="whiteSpace=wrap;html=1;rounded=0;" vertex="1" parent="1">
          <mxGeometry x="254.99" y="962" width="162.26" height="66" as="geometry" />
        </mxCell>
        <mxCell id="r_sYGjCmVXQHVw2-_Qh0-178" value="End" style="ellipse;whiteSpace=wrap;html=1;rounded=0;" vertex="1" parent="1">
          <mxGeometry x="254.18" y="1449" width="163.88" height="73" as="geometry" />
        </mxCell>
      </root>
    </mxGraphModel>
  </diagram>
</mxfile>
